<mxfile host="app.diagrams.net" modified="2024-02-27T01:05:40.046Z" agent="Mozilla/5.0 (Windows NT 10.0; Win64; x64) AppleWebKit/537.36 (KHTML, like Gecko) Chrome/122.0.0.0 Safari/537.36" version="23.1.6" etag="WsKQaPtvWE3WZDNgv7Hc" type="github">
  <diagram name="第 1 页" id="GD0eYRn5tvLXYHGoy9nQ">
    <mxGraphModel>
      <root>
        <mxCell id="0" />
        <mxCell id="1" parent="0" />
      </root>
    </mxGraphModel>
  </diagram>
</mxfile>
